#!OML:ASF E:\Steps\Project 1\Capture day 1\Session 2\Subject.ASF
:FULLY-SPECIFIED
:DEGREES
301
root 3.90089 18.7409 16.2771 -159.038 2.95095 -184.518
lowerback -26.0521 -2.91008 -9.67301
upperback -1.85104 -0.19749 -0.911111
thorax 12.5785 -0.325728 4.50813
lowerneck -3.43875 -2.14048 -0.144013
upperneck 11.1153 -2.64625 0.851381
head 4.2734 -1.13653 0.194123
rclavicle 2.31087e-015 -3.26007e-014
rhumerus -41.6996 -18.9227 -74.4164
rradius 30.2314
rwrist 0.181355
rhand -7.64821 -54.4525
rfingers 7.12502
rthumb 18.2473 -83.6166
lclavicle 2.31087e-015 -3.26007e-014
lhumerus -30.6774 12.4651 76.1431
lradius 15.1035
lwrist -14.1151
lhand -19.9486 -13.5078
lfingers 7.12502
lthumb 6.38946 16.3758
rfemur -18.4127 2.55688 18.6583
rtibia 4.86464
rfoot -15.775 2.47949
rtoes -11.2966
lfemur -16.6175 -7.95517 -25.7686
ltibia 6.35038
lfoot -7.89122 0.969223
ltoes -39.6197
302
root 3.89824 18.7414 16.272 -158.996 2.91223 -184.427
lowerback -26.2107 -2.87908 -9.51256
upperback -1.81985 -0.187566 -0.897593
thorax 12.6979 -0.320323 4.43557
lowerneck -3.50791 -2.12796 -0.125663
upperneck 11.0168 -2.64407 0.896772
head 4.25211 -1.13672 0.205563
rclavicle -5.8393e-015 1.47101e-014
rhumerus -41.4736 -18.9599 -74.5383
rradius 30.1631
rwrist 0.0423209
rhand -7.39048 -54.1415
rfingers 7.12502
rthumb 18.4952 -83.2822
lclavicle -5.8393e-015 1.47101e-014
lhumerus -30.4954 12.4388 76.2664
lradius 15.1741
lwrist -13.8872
lhand -19.8884 -13.6779
lfingers 7.12502
lthumb 6.44753 16.204
rfemur -18.4359 2.4989 18.7622
rtibia 4.86937
rfoot -15.7355 2.58546
rtoes -10.4487
lfemur -16.6117 -7.99768 -25.663
ltibia 6.30022
lfoot -7.87914 1.00013
ltoes -40.1036
303
root 3.89732 18.7416 16.2687 -158.939 2.88208 -184.334
lowerback -26.4725 -2.82268 -9.37712
upperback -1.73906 -0.122523 -0.903589
thorax 12.924 -0.298088 4.37491
lowerneck -3.56219 -2.11455 -0.0478957
upperneck 10.8394 -2.64666 0.924773
head 4.19813 -1.13994 0.200833
rclavicle 5.44173e-015 5.1684e-015
rhumerus -41.2463 -19.1739 -74.5944
rradius 30.0748
rwrist -0.091318
rhand -7.19192 -53.5168
rfingers 7.12502
rthumb 18.6862 -82.6393
lclavicle 5.44173e-015 5.1684e-015
lhumerus -30.2327 11.6644 76.663
lradius 15.4379
lwrist -13.1406
lhand -19.7068 -13.7419
lfingers 7.12502
lthumb 6.6229 16.1345
rfemur -18.4675 2.56894 18.8627
rtibia 4.85812
rfoot -15.7378 2.52409
rtoes -10.7586
lfemur -16.6596 -8.01487 -25.5379
ltibia 6.30195
lfoot -7.9272 1.00647
ltoes -39.8082
304
root 3.89755 18.7423 16.2671 -158.848 2.85069 -184.269
lowerback -26.436 -2.82122 -9.31779
upperback -1.8507 -0.148219 -0.831773
thorax 12.776 -0.294098 4.41597
lowerneck -3.54853 -2.1013 -0.115107
upperneck 10.7248 -2.62359 0.861373
head 4.15407 -1.13825 0.192979
rclavicle -6.95746e-015 3.22031e-014
rhumerus -41.3346 -19.0585 -74.5585
rradius 30.2006
rwrist -0.358821
rhand -7.22678 -53.0884
rfingers 7.12502
rthumb 18.6527 -82.2141
lclavicle -6.95746e-015 3.22031e-014
lhumerus -30.3223 10.8775 77.1074
lradius 15.7899
lwrist -12.4264
lhand -19.6463 -13.3866
lfingers 7.12502
lthumb 6.68123 16.488
rfemur -18.5635 2.61347 18.9383
rtibia 4.88875
rfoot -15.7912 2.44091
rtoes -11.1711
lfemur -16.7945 -8.04135 -25.4354
ltibia 6.38556
lfoot -7.98784 1.01355
ltoes -39.2386
305
root 3.89643 18.7434 16.2637 -158.794 2.7199 -184.217
lowerback -26.4715 -2.83394 -9.22277
upperback -1.88815 -0.192866 -0.789051
thorax 12.7567 -0.306669 4.39507
lowerneck -3.61807 -2.07995 -0.105263
upperneck 10.6586 -2.59 0.738226
head 4.14161 -1.13036 0.151143
rclavicle 1.33186e-014 1.05356e-014
rhumerus -41.344 -18.9482 -74.6388
rradius 30.4084
rwrist -0.588494
rhand -7.21452 -53.1635
rfingers 7.12502
rthumb 18.6645 -82.288
lclavicle 1.33186e-014 1.05356e-014
lhumerus -30.2893 10.3555 77.4435
lradius 16.0167
lwrist -12.0824
lhand -19.8156 -13.0694
lfingers 7.12502
lthumb 6.51785 16.8103
rfemur -18.5662 2.5011 19.0176
rtibia 4.84814
rfoot -15.8828 2.47572
rtoes -11.1673
lfemur -16.8693 -8.0642 -25.3623
ltibia 6.44966
lfoot -7.98595 0.971304
ltoes -39.6955
306
root 3.89501 18.7448 16.2582 -158.767 2.53552 -184.157
lowerback -26.4739 -2.8368 -9.10909
upperback -1.92267 -0.230856 -0.768935
thorax 12.7219 -0.313794 4.33967
lowerneck -3.59546 -1.98003 -0.213357
upperneck 10.3702 -2.4731 0.851478
head 4.03685 -1.08042 0.214189
rclavicle 9.64106e-015 -1.76918e-014
rhumerus -41.3502 -18.894 -74.7659
rradius 30.5585
rwrist -0.773441
rhand -7.25701 -53.511
rfingers 7.12502
rthumb 18.6236 -82.6395
lclavicle 9.64106e-015 -1.76918e-014
lhumerus -30.2013 10.0743 77.6109
lradius 16.0947
lwrist -12.034
lhand -19.9308 -13.4286
lfingers 7.12502
lthumb 6.40662 16.4545
rfemur -18.4984 2.25493 19.1306
rtibia 4.72674
rfoot -15.8816 2.60332
rtoes -11.0023
lfemur -16.8926 -8.09858 -25.2749
ltibia 6.42723
lfoot -7.94515 0.884449
ltoes -40.2604
